<svg width="24" height="24" viewBox="0 0 24 24" fill="none" xmlns="http://www.w3.org/2000/svg">
<path d="M16 13C16 15.2091 14.2091 17 12 17C9.79086 17 8 15.2091 8 13C8 10.7909 9.79086 9 12 9C14.2091 9 16 10.7909 16 13Z" stroke="white"/>
<path d="M2 18V8.5C2 7.39543 2.89543 6.5 4 6.5H8V6C8 5.44772 8.44772 5 9 5H15C15.5523 5 16 5.44772 16 6V6.5H20C21.1046 6.5 22 7.39543 22 8.5V18C22 19.1046 21.1046 20 20 20H4C2.89543 20 2 19.1046 2 18Z" stroke="white"/>
<path d="M19 9C19 9.27614 18.7761 9.5 18.5 9.5C18.2239 9.5 18 9.27614 18 9C18 8.72386 18.2239 8.5 18.5 8.5C18.7761 8.5 19 8.72386 19 9Z" stroke="white"/>
</svg>
