<svg id="stroke" id="fill" width="20" height="20" viewBox="0 0 20 20" fill="none" xmlns="http://www.w3.org/2000/svg">
<path d="M15 8.5C15 12.0899 12.0899 15 8.5 15V17C13.1944 17 17 13.1944 17 8.5H15ZM8.5 15C4.91015 15 2 12.0899 2 8.5H0C0 13.1944 3.80558 17 8.5 17V15ZM2 8.5C2 4.91015 4.91015 2 8.5 2V0C3.80558 0 0 3.80558 0 8.5H2ZM8.5 2C12.0899 2 15 4.91015 15 8.5H17C17 3.80558 13.1944 0 8.5 0V2ZM13.3356 15.2474L17.8356 19.2474L19.1644 17.7526L14.6644 13.7526L13.3356 15.2474Z" fill="inherit"/>
</svg>
